<svg data-logo="logo" xmlns="http://www.w3.org/2000/svg" viewBox="0 0 233 42">
        <g style="opacity: 1;" id="logogram" transform="translate(0, 1) rotate(0)"><path d="M24 0H16V12.0632C15.9663 14.2434 14.1885 16 12.0005 16H0V24H8.68629C10.808 24 12.8429 23.1571 14.3431 21.6569L21.6569 14.3431C23.1571 12.8429 24 10.808 24 8.68629V0Z" fill="url(#paint0_linear_7697_8782)"></path><path d="M16 40H24V27.9368C24.0337 25.7566 25.8115 24 27.9995 24H40V16H31.3137C29.192 16 27.1571 16.8429 25.6569 18.3431L18.3431 25.6569C16.8429 27.1571 16 29.192 16 31.3137V40Z" fill="url(#paint1_linear_7697_8782)"></path></g>
        <g style="opacity: 1;" id="logotype" transform="translate(46, 1.5)"><path fill="#71ba8c" d="M18.67 32L18.67 21.64L11.98 21.64L11.98 32L7.58 32L7.58 7.50L11.98 7.50L11.98 17.58L18.67 17.58L18.67 7.50L23.08 7.50L23.08 32L18.67 32ZM25.53 23.25L25.53 23.25Q25.53 18.59 27.35 16.32Q29.17 14.04 32.43 14.04L32.43 14.04Q35.93 14.04 37.64 16.35Q39.36 18.66 39.36 23.25L39.36 23.25Q39.36 27.94 37.54 30.20Q35.72 32.45 32.43 32.45L32.43 32.45Q25.53 32.45 25.53 23.25ZM29.84 23.25L29.84 23.25Q29.84 25.88 30.43 27.31Q31.03 28.75 32.43 28.75L32.43 28.75Q33.76 28.75 34.40 27.50Q35.05 26.26 35.05 23.25L35.05 23.25Q35.05 20.55 34.45 19.16Q33.86 17.75 32.43 17.75L32.43 17.75Q31.20 17.75 30.52 19.00Q29.84 20.24 29.84 23.25ZM41.11 23.25L41.11 23.25Q41.11 18.59 42.93 16.32Q44.75 14.04 48.00 14.04L48.00 14.04Q51.50 14.04 53.22 16.35Q54.93 18.66 54.93 23.25L54.93 23.25Q54.93 27.94 53.11 30.20Q51.29 32.45 48.00 32.45L48.00 32.45Q41.11 32.45 41.11 23.25ZM45.41 23.25L45.41 23.25Q45.41 25.88 46.01 27.31Q46.60 28.75 48.00 28.75L48.00 28.75Q49.33 28.75 49.98 27.50Q50.63 26.26 50.63 23.25L50.63 23.25Q50.63 20.55 50.03 19.16Q49.44 17.75 48.00 17.75L48.00 17.75Q46.78 17.75 46.09 19.00Q45.41 20.24 45.41 23.25ZM60.11 14.50L62.56 24.34L63.02 27.06L63.19 27.06L63.51 24.30L65.54 14.50L69.81 14.50L65.43 30.29Q64.84 32.35 64.31 33.99Q63.79 35.64 63.19 36.80Q62.60 37.95 61.84 38.56Q61.09 39.17 60.04 39.17L60.04 39.17Q59.31 39.17 58.62 39.05Q57.94 38.93 57.45 38.65L57.45 38.65L58.15 35.08Q58.61 35.26 59.08 35.24Q59.55 35.22 59.95 34.89Q60.36 34.55 60.67 33.85Q60.99 33.16 61.20 32L61.20 32L55.11 14.50L60.11 14.50ZM77.54 32L77.54 7.50L81.95 7.50L81.95 32L77.54 32ZM88.57 14.50L91.02 24.34L91.47 27.06L91.65 27.06L91.96 24.30L93.99 14.50L98.26 14.50L93.89 30.29Q93.29 32.35 92.77 33.99Q92.24 35.64 91.65 36.80Q91.05 37.95 90.30 38.56Q89.55 39.17 88.50 39.17L88.50 39.17Q87.76 39.17 87.08 39.05Q86.40 38.93 85.91 38.65L85.91 38.65L86.61 35.08Q87.06 35.26 87.53 35.24Q88.01 35.22 88.41 34.89Q88.81 34.55 89.13 33.85Q89.44 33.16 89.65 32L89.65 32L83.56 14.50L88.57 14.50ZM98.58 23.25L98.58 23.25Q98.58 18.59 100.40 16.32Q102.22 14.04 105.47 14.04L105.47 14.04Q108.97 14.04 110.69 16.35Q112.40 18.66 112.40 23.25L112.40 23.25Q112.40 27.94 110.58 30.20Q108.76 32.45 105.47 32.45L105.47 32.45Q98.58 32.45 98.58 23.25ZM102.88 23.25L102.88 23.25Q102.88 25.88 103.48 27.31Q104.07 28.75 105.47 28.75L105.47 28.75Q106.80 28.75 107.45 27.50Q108.10 26.26 108.10 23.25L108.10 23.25Q108.10 20.55 107.50 19.16Q106.91 17.75 105.47 17.75L105.47 17.75Q104.25 17.75 103.56 19.00Q102.88 20.24 102.88 23.25ZM133.12 32L133.12 21.64L126.44 21.64L126.44 32L122.03 32L122.03 7.50L126.44 7.50L126.44 17.58L133.12 17.58L133.12 7.50L137.53 7.50L137.53 32L133.12 32ZM141.70 18.66L140.65 15.55Q141.70 14.92 143.27 14.53Q144.85 14.15 146.84 14.15L146.84 14.15Q149.82 14.15 150.99 15.69Q152.16 17.23 152.16 20.06L152.16 20.06Q152.16 21.71 152.07 23.30Q151.99 24.89 151.95 26.42Q151.92 27.94 152.00 29.36Q152.09 30.77 152.48 32.03L152.48 32.03L149.08 32.03L148.42 29.90L148.28 29.90Q147.72 30.91 146.70 31.58Q145.69 32.24 144.15 32.24L144.15 32.24Q142.08 32.24 140.89 30.86Q139.70 29.48 139.70 27.17L139.70 27.17Q139.70 24.02 141.94 22.69Q144.18 21.36 148.00 21.57L148.00 21.57Q148.17 19.54 147.73 18.63Q147.30 17.72 145.86 17.72L145.86 17.72Q144.81 17.72 143.69 17.96Q142.57 18.21 141.70 18.66L141.70 18.66ZM145.65 28.68L145.65 28.68Q146.60 28.68 147.19 28.20Q147.79 27.73 148.07 27.17L148.07 27.17L148.07 24.27Q147.26 24.16 146.53 24.23Q145.79 24.30 145.23 24.54Q144.67 24.79 144.34 25.26Q144.01 25.73 144.01 26.47L144.01 26.47Q144.01 27.55 144.44 28.11Q144.88 28.68 145.65 28.68ZM167.91 32L163.75 32L163.75 21.36Q163.75 19.43 163.29 18.66Q162.84 17.89 161.75 17.89L161.75 17.89Q160.84 17.89 160.18 18.45Q159.51 19.02 159.23 19.85L159.23 19.85L159.23 32L155.07 32L155.07 14.50L158.39 14.50L158.88 16.53L158.99 16.53Q159.62 15.51 160.70 14.80Q161.79 14.08 163.54 14.08L163.54 14.08Q164.59 14.08 165.41 14.39Q166.23 14.71 166.79 15.43Q167.35 16.14 167.63 17.35Q167.91 18.56 167.91 20.34L167.91 20.34L167.91 32ZM169.42 18.21L169.42 14.50L171.34 14.50L171.34 11.21L175.51 9.91L175.51 14.50L178.90 14.50L178.90 18.21L175.51 18.21L175.51 25.84Q175.51 27.34 175.80 27.98Q176.10 28.61 176.87 28.61L176.87 28.61Q177.40 28.61 177.82 28.50Q178.24 28.39 178.73 28.18L178.73 28.18L179.25 31.51Q178.48 31.89 177.47 32.16Q176.45 32.42 175.33 32.42L175.33 32.42Q173.34 32.42 172.34 31.27Q171.34 30.11 171.34 27.38L171.34 27.38L171.34 18.21L169.42 18.21ZM181.32 32L181.32 14.50L185.48 14.50L185.48 32L181.32 32ZM180.83 9.56L180.83 9.56Q180.83 8.51 181.49 7.83Q182.16 7.15 183.38 7.15L183.38 7.15Q184.61 7.15 185.34 7.81Q186.08 8.48 186.08 9.56L186.08 9.56Q186.08 10.65 185.34 11.28Q184.61 11.91 183.38 11.91L183.38 11.91Q182.16 11.91 181.49 11.26Q180.83 10.61 180.83 9.56Z"></path></g>
        <defs xmlns="http://www.w3.org/2000/svg">
<linearGradient id="paint0_linear_7697_8782" x1="20" y1="-0.997096" x2="20" y2="33.7931" gradientUnits="userSpaceOnUse">
<stop stop-color="#75D8FC"></stop>
<stop offset="1" stop-color="#71BA8C"></stop>
</linearGradient>
<linearGradient id="paint1_linear_7697_8782" x1="20" y1="-0.997096" x2="20" y2="33.7931" gradientUnits="userSpaceOnUse">
<stop stop-color="#75D8FC"></stop>
<stop offset="1" stop-color="#71BA8C"></stop>
</linearGradient>
</defs>
      </svg>