
      <svg data-logo="logo" xmlns="http://www.w3.org/2000/svg" viewBox="0 0 290 43">
        <g id="logogram" transform="translate(0, 1.5) rotate(0) "><path d="M24 0H16V12.0632C15.9663 14.2434 14.1885 16 12.0005 16H0V24H8.68629C10.808 24 12.8429 23.1571 14.3431 21.6569L21.6569 14.3431C23.1571 12.8429 24 10.808 24 8.68629V0Z" fill="url(#paint0_linear_7697_8782)"/><path d="M16 40H24V27.9368C24.0337 25.7566 25.8115 24 27.9995 24H40V16H31.3137C29.192 16 27.1571 16.8429 25.6569 18.3431L18.3431 25.6569C16.8429 27.1571 16 29.192 16 31.3137V40Z" fill="url(#paint1_linear_7697_8782)"/></g>
        <g id="logotype" transform="translate(46, 1)"><path fill="#418fde" d="M13.52 34L8.31 34L8.31 8.54L13.52 8.54L13.52 18.82L24.61 18.82L24.61 8.54L29.84 8.54L29.84 34L24.61 34L24.61 23.15L13.52 23.15L13.52 34ZM40.60 34.38L40.60 34.38Q37.73 34.38 35.63 33.14Q33.53 31.90 32.39 29.68Q31.26 27.47 31.26 24.53L31.26 24.53Q31.26 21.56 32.39 19.35Q33.53 17.13 35.63 15.89Q37.73 14.65 40.60 14.65L40.60 14.65Q43.49 14.65 45.59 15.89Q47.68 17.13 48.82 19.35Q49.95 21.56 49.95 24.53L49.95 24.53Q49.95 27.47 48.82 29.68Q47.68 31.90 45.59 33.14Q43.49 34.38 40.60 34.38ZM40.60 30.34L40.60 30.34Q41.97 30.34 42.89 29.58Q43.82 28.82 44.28 27.50Q44.74 26.17 44.74 24.52L44.74 24.52Q44.74 22.82 44.28 21.51Q43.82 20.19 42.89 19.44Q41.97 18.69 40.60 18.69L40.60 18.69Q39.24 18.69 38.32 19.44Q37.41 20.19 36.95 21.51Q36.49 22.82 36.49 24.52L36.49 24.52Q36.49 26.17 36.95 27.50Q37.41 28.82 38.32 29.58Q39.24 30.34 40.60 30.34ZM59.79 34.38L59.79 34.38Q56.92 34.38 54.82 33.14Q52.72 31.90 51.58 29.68Q50.45 27.47 50.45 24.53L50.45 24.53Q50.45 21.56 51.58 19.35Q52.72 17.13 54.82 15.89Q56.92 14.65 59.79 14.65L59.79 14.65Q62.68 14.65 64.78 15.89Q66.87 17.13 68.01 19.35Q69.14 21.56 69.14 24.53L69.14 24.53Q69.14 27.47 68.01 29.68Q66.87 31.90 64.78 33.14Q62.68 34.38 59.79 34.38ZM59.79 30.34L59.79 30.34Q61.16 30.34 62.08 29.58Q63.01 28.82 63.47 27.50Q63.93 26.17 63.93 24.52L63.93 24.52Q63.93 22.82 63.47 21.51Q63.01 20.19 62.08 19.44Q61.16 18.69 59.79 18.69L59.79 18.69Q58.43 18.69 57.51 19.44Q56.60 20.19 56.14 21.51Q55.68 22.82 55.68 24.52L55.68 24.52Q55.68 26.17 56.14 27.50Q56.60 28.82 57.51 29.58Q58.43 30.34 59.79 30.34ZM70.30 40.77L70.30 40.77L71.48 36.91L72.11 37.06Q73.14 37.33 73.94 37.21Q74.75 37.09 75.23 36.56Q75.72 36.03 75.82 35.08L75.82 35.08L75.96 34.05L68.78 14.89L74.23 14.89L77.45 24.81Q78.03 26.69 78.39 28.57Q78.76 30.45 79.24 32.50L79.24 32.50L78.04 32.50Q78.51 30.45 78.97 28.56Q79.43 26.67 80.04 24.81L80.04 24.81L83.39 14.89L88.78 14.89L80.66 36.26Q80.08 37.79 79.17 38.92Q78.27 40.05 76.92 40.67Q75.57 41.28 73.65 41.28L73.65 41.28Q72.63 41.28 71.74 41.14Q70.85 40.99 70.30 40.77ZM97.78 34.38L97.78 34.38Q94.91 34.38 92.81 33.14Q90.71 31.90 89.57 29.68Q88.43 27.47 88.43 24.53L88.43 24.53Q88.43 21.56 89.57 19.35Q90.71 17.13 92.81 15.89Q94.91 14.65 97.78 14.65L97.78 14.65Q100.67 14.65 102.76 15.89Q104.86 17.13 105.99 19.35Q107.13 21.56 107.13 24.53L107.13 24.53Q107.13 27.47 105.99 29.68Q104.86 31.90 102.76 33.14Q100.67 34.38 97.78 34.38ZM97.78 30.34L97.78 30.34Q99.15 30.34 100.07 29.58Q100.99 28.82 101.46 27.50Q101.92 26.17 101.92 24.52L101.92 24.52Q101.92 22.82 101.46 21.51Q100.99 20.19 100.07 19.44Q99.15 18.69 97.78 18.69L97.78 18.69Q96.41 18.69 95.50 19.44Q94.59 20.19 94.12 21.51Q93.66 22.82 93.66 24.52L93.66 24.52Q93.66 26.17 94.12 27.50Q94.59 28.82 95.50 29.58Q96.41 30.34 97.78 30.34ZM114.56 8.54L119.77 8.54L119.77 34L114.56 34L114.56 8.54ZM121.85 40.77L121.85 40.77L123.03 36.91L123.67 37.06Q124.69 37.33 125.49 37.21Q126.30 37.09 126.79 36.56Q127.27 36.03 127.37 35.08L127.37 35.08L127.51 34.05L120.33 14.89L125.79 14.89L129.00 24.81Q129.58 26.69 129.95 28.57Q130.31 30.45 130.79 32.50L130.79 32.50L129.60 32.50Q130.06 30.45 130.52 28.56Q130.98 26.67 131.60 24.81L131.60 24.81L134.95 14.89L140.33 14.89L132.21 36.26Q131.63 37.79 130.72 38.92Q129.82 40.05 128.47 40.67Q127.12 41.28 125.20 41.28L125.20 41.28Q124.18 41.28 123.29 41.14Q122.40 40.99 121.85 40.77ZM149.33 34.38L149.33 34.38Q146.46 34.38 144.36 33.14Q142.26 31.90 141.12 29.68Q139.99 27.47 139.99 24.53L139.99 24.53Q139.99 21.56 141.12 19.35Q142.26 17.13 144.36 15.89Q146.46 14.65 149.33 14.65L149.33 14.65Q152.22 14.65 154.31 15.89Q156.41 17.13 157.54 19.35Q158.68 21.56 158.68 24.53L158.68 24.53Q158.68 27.47 157.54 29.68Q156.41 31.90 154.31 33.14Q152.22 34.38 149.33 34.38ZM149.33 30.34L149.33 30.34Q150.70 30.34 151.62 29.58Q152.55 28.82 153.01 27.50Q153.47 26.17 153.47 24.52L153.47 24.52Q153.47 22.82 153.01 21.51Q152.55 20.19 151.62 19.44Q150.70 18.69 149.33 18.69L149.33 18.69Q147.97 18.69 147.05 19.44Q146.14 20.19 145.68 21.51Q145.21 22.82 145.21 24.52L145.21 24.52Q145.21 26.17 145.68 27.50Q146.14 28.82 147.05 29.58Q147.97 30.34 149.33 30.34ZM171.32 34L166.11 34L166.11 8.54L171.32 8.54L171.32 18.82L182.42 18.82L182.42 8.54L187.64 8.54L187.64 34L182.42 34L182.42 23.15L171.32 23.15L171.32 34ZM195.20 34.38L195.20 34.38Q193.38 34.38 191.94 33.74Q190.50 33.09 189.67 31.82Q188.84 30.55 188.84 28.65L188.84 28.65Q188.84 27.06 189.43 25.98Q190.02 24.91 191.03 24.26Q192.05 23.61 193.34 23.27Q194.63 22.93 196.05 22.79L196.05 22.79Q197.71 22.62 198.73 22.47Q199.74 22.33 200.21 22.01Q200.68 21.70 200.68 21.08L200.68 21.08L200.68 20.99Q200.68 20.17 200.34 19.61Q200.00 19.05 199.33 18.75Q198.67 18.45 197.69 18.45L197.69 18.45Q196.70 18.45 195.97 18.75Q195.23 19.05 194.77 19.54Q194.31 20.04 194.09 20.65L194.09 20.65L189.39 19.87Q189.88 18.21 191.03 17.05Q192.17 15.88 193.87 15.27Q195.57 14.65 197.69 14.65L197.69 14.65Q199.25 14.65 200.70 15.02Q202.15 15.39 203.31 16.16Q204.46 16.93 205.13 18.16Q205.81 19.39 205.81 21.13L205.81 21.13L205.81 34L200.96 34L200.96 31.35L200.78 31.35Q200.32 32.24 199.55 32.91Q198.79 33.59 197.70 33.98Q196.61 34.38 195.20 34.38ZM196.65 30.77L196.65 30.77Q197.86 30.77 198.78 30.29Q199.69 29.81 200.20 28.99Q200.72 28.17 200.72 27.16L200.72 27.16L200.72 25.10Q200.49 25.27 200.03 25.40Q199.57 25.54 199.01 25.64Q198.44 25.75 197.90 25.83Q197.35 25.92 196.92 25.97L196.92 25.97Q195.98 26.10 195.26 26.41Q194.55 26.72 194.15 27.22Q193.76 27.73 193.76 28.51L193.76 28.51Q193.76 29.25 194.14 29.75Q194.51 30.26 195.15 30.51Q195.79 30.77 196.65 30.77ZM213.04 22.94L213.04 22.94L213.04 34L207.91 34L207.91 14.89L212.75 14.89L212.83 19.66L212.52 19.66Q213.28 17.27 214.80 15.96Q216.33 14.65 218.76 14.65L218.76 14.65Q220.74 14.65 222.21 15.52Q223.68 16.38 224.50 18.00Q225.32 19.61 225.32 21.85L225.32 21.85L225.32 34L220.20 34L220.20 22.74Q220.20 20.96 219.28 19.95Q218.37 18.94 216.74 18.94L216.74 18.94Q215.67 18.94 214.82 19.41Q213.98 19.88 213.51 20.77Q213.04 21.66 213.04 22.94ZM225.58 14.89L236.91 14.89L236.91 18.81L225.58 18.81L225.58 14.89ZM228.21 28.86L228.21 10.35L233.34 10.35L233.34 28.41Q233.34 29.32 233.74 29.75Q234.14 30.19 235.08 30.19L235.08 30.19Q235.37 30.19 235.90 30.11Q236.43 30.04 236.70 29.97L236.70 29.97L237.44 33.81Q236.58 34.07 235.74 34.17Q234.89 34.27 234.12 34.27L234.12 34.27Q231.25 34.27 229.73 32.87Q228.21 31.47 228.21 28.86L228.21 28.86ZM243.09 34L237.97 34L237.97 14.89L243.09 14.89L243.09 34ZM240.53 12.40L240.53 12.40Q239.37 12.40 238.55 11.63Q237.73 10.86 237.73 9.77L237.73 9.77Q237.73 8.67 238.55 7.90Q239.37 7.13 240.53 7.13L240.53 7.13Q241.69 7.13 242.52 7.90Q243.35 8.66 243.35 9.77L243.35 9.77Q243.35 10.86 242.52 11.63Q241.69 12.40 240.53 12.40Z"/></g>
        <defs xmlns="http://www.w3.org/2000/svg">
<linearGradient id="paint0_linear_7697_8782" x1="20" y1="-0.997096" x2="20" y2="33.7931" gradientUnits="userSpaceOnUse">
<stop stop-color="#75D8FC"/>
<stop offset="1" stop-color="#0072E5"/>
</linearGradient>
<linearGradient id="paint1_linear_7697_8782" x1="20" y1="-0.997096" x2="20" y2="33.7931" gradientUnits="userSpaceOnUse">
<stop stop-color="#75D8FC"/>
<stop offset="1" stop-color="#0072E5"/>
</linearGradient>
</defs>
      </svg>
    